<?xml version="1.0" standalone="no"?>
<!DOCTYPE svg PUBLIC "-//W3C//DTD SVG 20010904//EN"
 "http://www.w3.org/TR/2001/REC-SVG-20010904/DTD/svg10.dtd">
<svg version="1.0" xmlns="http://www.w3.org/2000/svg"
 width="265.000000pt" height="265.000000pt" viewBox="0 0 265.000000 265.000000"
 preserveAspectRatio="xMidYMid meet">
<metadata>
Created by potrace 1.11, written by Peter Selinger 2001-2013
</metadata>
<g transform="translate(0.000000,265.000000) scale(0.100000,-0.100000)"
fill="#000000" stroke="none">
<path d="M1257 2636 c4 -5 -1 -7 -11 -3 -10 4 -19 1 -22 -7 -3 -8 -14 -13 -25
-11 -10 2 -19 -1 -19 -7 0 -6 -3 -9 -6 -5 -4 3 -26 -5 -49 -18 -24 -13 -46
-21 -49 -18 -3 4 -6 0 -6 -7 0 -7 -3 -11 -6 -7 -4 3 -19 0 -35 -9 -16 -8 -31
-14 -34 -14 -3 0 -18 -6 -34 -14 -16 -9 -31 -12 -35 -9 -3 4 -6 0 -6 -7 0 -7
-3 -11 -6 -7 -4 3 -13 -1 -21 -9 -8 -8 -19 -12 -24 -9 -5 4 -9 1 -9 -6 0 -7
-3 -9 -7 -6 -3 4 -15 0 -25 -10 -10 -9 -18 -13 -18 -9 0 4 -7 0 -16 -8 -8 -9
-20 -14 -25 -11 -5 4 -9 2 -9 -4 0 -6 -16 -18 -35 -27 -19 -9 -35 -20 -35 -25
0 -5 -7 -9 -15 -9 -8 0 -15 -4 -15 -8 0 -5 -12 -15 -27 -23 -16 -8 -35 -21
-43 -29 -8 -8 -32 -26 -52 -40 -20 -13 -34 -28 -32 -32 3 -4 0 -8 -7 -8 -6 0
-20 -10 -30 -22 -11 -11 -19 -18 -19 -13 0 4 -13 -9 -30 -30 -16 -21 -30 -35
-30 -31 0 4 -11 -5 -25 -20 -14 -15 -25 -32 -25 -37 0 -6 -3 -7 -6 -4 -4 4
-22 -14 -41 -38 -19 -25 -38 -45 -43 -45 -6 0 -10 -5 -10 -10 0 -6 -11 -23
-24 -37 -14 -15 -23 -30 -20 -34 2 -4 -5 -10 -16 -14 -11 -4 -18 -10 -15 -15
3 -5 -3 -17 -15 -27 -11 -10 -20 -23 -20 -30 0 -7 -4 -13 -10 -13 -5 0 -10 -4
-10 -10 0 -5 -13 -30 -30 -56 -16 -26 -27 -51 -23 -57 3 -6 1 -7 -5 -3 -12 7
-16 -5 -13 -33 2 -7 -2 -10 -8 -6 -7 4 -11 -5 -11 -25 0 -17 4 -29 9 -25 5 3
16 -2 24 -10 9 -8 19 -15 24 -15 10 0 63 -45 63 -54 0 -4 -4 -5 -8 -2 -8 5
-38 -64 -33 -73 2 -2 -3 -7 -10 -12 -7 -4 -14 -15 -15 -24 -2 -13 0 -14 12 -4
8 6 14 9 14 6 0 -3 15 9 34 26 40 38 83 63 92 54 4 -3 7 -18 7 -32 0 -14 3
-25 7 -25 5 0 7 -8 5 -17 -1 -10 2 -23 7 -30 5 -7 7 -17 3 -23 -3 -5 -1 -10 5
-10 6 0 8 -4 5 -10 -3 -5 -1 -10 4 -10 6 0 10 -3 10 -7 -3 -17 14 -73 22 -73
5 0 9 -9 9 -19 0 -11 5 -23 10 -26 7 -4 7 -12 0 -25 -7 -13 -7 -21 1 -26 8 -4
7 -9 -2 -15 -8 -5 -9 -9 -3 -9 14 0 14 -30 0 -30 -8 0 -8 -3 0 -8 13 -9 13
-55 0 -64 -8 -5 -8 -8 0 -8 6 0 11 -7 11 -15 0 -8 -5 -15 -10 -15 -5 0 -4 -7
3 -15 10 -12 10 -15 -1 -15 -12 0 -12 -2 0 -9 7 -5 9 -11 4 -14 -11 -7 -10
-48 2 -67 5 -8 4 -11 -2 -7 -6 4 -10 -9 -10 -31 -1 -83 -8 -154 -15 -158 -4
-3 -8 -10 -8 -15 0 -6 5 -7 11 -3 8 5 8 1 0 -14 -6 -11 -11 -35 -12 -53 -2
-19 -5 -38 -7 -43 -3 -5 -6 -23 -7 -40 -3 -41 -8 -60 -20 -68 -6 -5 -5 -8 3
-8 9 0 10 -5 4 -17 -5 -10 -7 -24 -5 -30 3 -7 0 -13 -5 -13 -6 0 -9 -11 -7
-25 1 -14 -1 -25 -4 -25 -4 0 -8 -14 -9 -31 -1 -17 -7 -40 -13 -51 -6 -11 -8
-22 -5 -25 3 -4 1 -11 -4 -18 -5 -6 -12 -22 -14 -36 -3 -13 -5 -24 -6 -24 -1
0 -3 -8 -6 -17 -2 -10 -6 -26 -8 -35 -3 -10 -5 -20 -6 -23 -1 -3 -2 -8 -1 -12
0 -5 -3 -8 -7 -8 -5 0 -9 -7 -9 -14 0 -13 155 -15 1164 -15 1144 0 1163 1
1163 20 0 10 -4 19 -9 19 -5 0 -8 6 -8 12 2 28 -16 94 -31 111 -11 12 -12 17
-2 17 9 0 9 4 2 12 -6 7 -11 16 -11 21 -1 4 -1 8 -2 10 -1 2 -7 47 -11 75 -1
6 -4 12 -8 12 -4 0 -6 10 -6 23 1 12 -2 31 -7 42 -6 10 -12 35 -14 55 -4 49
-7 63 -16 77 -4 6 -1 14 5 16 9 4 10 8 2 14 -10 8 -17 61 -18 140 0 24 -3 43
-6 43 -3 0 -5 22 -6 50 0 32 3 47 10 43 6 -4 5 0 -1 8 -8 9 -14 53 -15 107 -2
53 -7 92 -13 92 -6 0 -5 3 1 8 13 9 14 42 1 42 -5 0 -4 6 2 13 6 8 8 16 5 20
-9 9 -12 57 -3 57 5 0 9 4 9 9 0 5 5 22 12 38 6 15 11 31 10 36 -1 4 3 7 9 7
5 0 7 4 4 10 -3 6 -1 10 4 10 6 0 11 5 11 11 0 5 -6 7 -12 3 -7 -4 -3 4 10 18
12 13 20 27 18 29 -3 3 0 23 7 46 l12 41 22 -24 c12 -13 19 -24 17 -24 -3 0 5
-10 17 -22 11 -13 28 -33 36 -45 19 -28 42 -30 40 -3 -1 11 -6 20 -11 20 -5 0
-6 3 -3 6 3 4 2 16 -4 27 -6 10 -7 17 -2 14 5 -4 10 0 10 8 0 8 -5 11 -10 8
-6 -4 -8 0 -4 10 4 10 1 17 -5 17 -6 0 -9 3 -6 6 4 3 -1 26 -9 50 -15 43 -14
45 9 64 12 11 27 19 31 20 5 0 5 5 2 10 -3 6 -1 10 5 10 13 0 70 57 70 70 0 9
-31 73 -39 80 -3 3 -13 19 -21 35 -8 17 -21 38 -29 48 -8 9 -11 17 -8 17 3 0
-5 12 -19 27 -13 14 -22 28 -20 30 2 3 -3 13 -12 22 -10 10 -24 28 -32 40 -8
13 -24 33 -35 46 -11 12 -36 41 -54 65 -46 57 -60 70 -73 70 -6 0 -8 3 -5 6 7
7 -68 82 -148 149 -27 22 -57 48 -67 58 -10 9 -18 14 -18 10 0 -5 -4 -3 -8 3
-10 15 -126 94 -138 94 -6 0 -19 8 -30 18 -28 24 -61 42 -79 42 -8 0 -15 5
-15 11 0 5 -4 7 -10 4 -5 -3 -10 -1 -10 5 0 6 -4 8 -10 5 -5 -3 -10 -1 -10 4
0 6 -3 10 -7 9 -5 -1 -20 4 -34 10 -15 6 -35 12 -45 14 -11 2 -22 7 -25 11 -3
4 -17 9 -30 11 -26 4 -47 11 -97 33 -50 22 -70 25 -159 27 -51 1 -79 -2 -76
-8z"/>
</g>
</svg>
